<?xml version="1.0" encoding="UTF-8" standalone="no"?>
<!-- Created with Inkscape (http://www.inkscape.org/) -->

<svg
   xmlns:dc="http://purl.org/dc/elements/1.1/"
   xmlns:cc="http://creativecommons.org/ns#"
   xmlns:rdf="http://www.w3.org/1999/02/22-rdf-syntax-ns#"
   xmlns:svg="http://www.w3.org/2000/svg"
   xmlns="http://www.w3.org/2000/svg"
   xmlns:sodipodi="http://sodipodi.sourceforge.net/DTD/sodipodi-0.dtd"
   xmlns:inkscape="http://www.inkscape.org/namespaces/inkscape"
   width="320"
   height="560"
   viewBox="0 0 320 560.00001"
   id="svg2"
   version="1.1"
   inkscape:version="0.91 r13725"
   sodipodi:docname="bear.svg">
  <sodipodi:namedview
     id="base"
     pagecolor="#ffffff"
     bordercolor="#666666"
     borderopacity="1.0"
     inkscape:pageopacity="0.0"
     inkscape:pageshadow="2"
     inkscape:zoom="0.98994949"
     inkscape:cx="16.987829"
     inkscape:cy="323.8173"
     inkscape:document-units="px"
     inkscape:current-layer="layer1"
     showgrid="false"
     inkscape:window-width="1920"
     inkscape:window-height="1017"
     inkscape:window-x="0"
     inkscape:window-y="0"
     inkscape:window-maximized="1"
     units="px" />
  <defs
     id="defs4" />
  <metadata
     id="metadata7">
    <rdf:RDF>
      <cc:Work
         rdf:about="">
        <dc:format>image/svg+xml</dc:format>
        <dc:type
           rdf:resource="http://purl.org/dc/dcmitype/StillImage" />
        <dc:title />
      </cc:Work>
    </rdf:RDF>
  </metadata>
  <g
     id="layer1"
     inkscape:groupmode="layer"
     inkscape:label="Layer 1">
    <path
       id="path3336"
       d="m 29.694893,211.52391 11.164728,160.67558 31.499329,28.06304 -20.617743,12.02702 -20.045027,29.20847 1.14543,42.95362 24.054036,42.95362 46.389914,13.1725 80.18011,4.009 87.0527,-16.6088 26.34489,-46.38989 -0.57272,-45.81721 -22.9086,-26.91761 -47.53535,-30.92661 43.52635,-18.32688 30.92661,-34.3629 0,-50.97165 -42.61259,-88.68078 13.98327,-93.79019 15.46331,-16.03602 -5.72715,-24.05403 -25.77218,-11.45431 -53.2625,1.14543 -33.79019,18.8996 2.29086,20.04503 7.14286,86.92404 -41.6602,18.861 -20.77861,-41.19046 9.15058,-44.76831 -15.70786,-50.18017 -44.671778,-8.01801 -28.635755,4.58172 -18.899597,33.21747 12.027017,30.92662 19.472312,22.33589 -18.616456,78.49418"
       style="fill:none;fill-rule:evenodd;stroke:#000000;stroke-width:0.56695896;stroke-linecap:butt;stroke-linejoin:miter;stroke-opacity:1"
       inkscape:connector-curvature="0"
       sodipodi:nodetypes="cccccccccccccccccccccccccccccccccccc">
      <desc
         id="desc3363">#ground
#static</desc>
    </path>
    <ellipse
       style="fill:#ff0000;fill-rule:evenodd;stroke:#000000;stroke-width:1.76100636;stroke-linecap:butt;stroke-linejoin:miter;stroke-opacity:1"
       id="path3355"
       cx="182.35715"
       cy="409.42856"
       rx="4.5597486"
       ry="4.5597482">
      <desc
         id="desc3371">#ball</desc>
    </ellipse>
    <ellipse
       style="fill:#ff0000;fill-rule:evenodd;stroke:#000000;stroke-width:1.76100647;stroke-linecap:butt;stroke-linejoin:miter;stroke-opacity:1"
       id="path3355-3"
       cx="66.75267"
       cy="61.341469"
       rx="4.5597486"
       ry="4.5597482">
      <desc
         id="desc3371-6">#ball</desc>
    </ellipse>
    <ellipse
       style="fill:#ff0000;fill-rule:evenodd;stroke:#000000;stroke-width:1.76100647;stroke-linecap:butt;stroke-linejoin:miter;stroke-opacity:1"
       id="path3355-7"
       cx="222.13414"
       cy="96.399139"
       rx="4.5597486"
       ry="4.5597482">
      <desc
         id="desc3371-5">#ball</desc>
    </ellipse>
    <path
       style="fill:none;fill-rule:evenodd;stroke:#000000;stroke-width:1px;stroke-linecap:butt;stroke-linejoin:miter;stroke-opacity:1"
       d="m 191.78571,513.21429 29.28571,-17.5 10.71429,-0.35714 6.78571,7.5 -2.14285,5.71428 -6.42858,5.35715 -33.21428,9.64285 -7.85714,-2.14285 -1.07143,-3.57143 z"
       id="path3423"
       inkscape:connector-curvature="0">
      <desc
         id="desc3449">#flipper
#right</desc>
    </path>
    <path
       style="fill:none;fill-rule:evenodd;stroke:#000000;stroke-width:1px;stroke-linecap:butt;stroke-linejoin:miter;stroke-opacity:1"
       d="m 136.43771,514.81546 -29.28571,-17.5 -10.714287,-0.35714 -6.78571,7.5 2.14285,5.71428 6.42858,5.35715 33.214277,9.64285 7.85714,-2.14285 1.07143,-3.57143 z"
       id="path3423-3"
       inkscape:connector-curvature="0">
      <desc
         id="desc3451">#flipper
#left</desc>
    </path>
    <path
       style="fill:#000000;fill-rule:evenodd;stroke:#000000;stroke-width:1px;stroke-linecap:butt;stroke-linejoin:miter;stroke-opacity:1;fill-opacity:1"
       d="M 58.571429,230 65.714286,282.14286 106.42857,270 117.85714,225 96.428571,177.14286 87.142857,135.71429 92.857143,92.142857 69.285714,71.428571 50,87.857143 l 20,29.285717 4.285714,47.14285 z"
       id="path3453"
       inkscape:connector-curvature="0">
      <desc
         id="desc3455">#ground</desc>
    </path>
    <path
       style="fill:#000000;fill-rule:evenodd;stroke:#000000;stroke-width:1px;stroke-linecap:butt;stroke-linejoin:miter;stroke-opacity:1;fill-opacity:1"
       d="M 202.14286,167.14286 173.57143,215 l 23.57143,28.57143 41.42857,-10.71429 4.28571,-34.28571 L 230,160.71429 Z"
       id="path3459"
       inkscape:connector-curvature="0">
      <desc
         id="desc3461">#ground</desc>
    </path>
  </g>
</svg>
