<?xml version="1.0" encoding="UTF-8" standalone="no"?>
<!-- Created with Inkscape (http://www.inkscape.org/) -->

<svg
   xmlns:dc="http://purl.org/dc/elements/1.1/"
   xmlns:cc="http://creativecommons.org/ns#"
   xmlns:rdf="http://www.w3.org/1999/02/22-rdf-syntax-ns#"
   xmlns:svg="http://www.w3.org/2000/svg"
   xmlns="http://www.w3.org/2000/svg"
   xmlns:sodipodi="http://sodipodi.sourceforge.net/DTD/sodipodi-0.dtd"
   xmlns:inkscape="http://www.inkscape.org/namespaces/inkscape"
   width="210mm"
   height="297mm"
   viewBox="0 0 744.09448819 1052.3622047"
   id="svg2"
   version="1.1"
   inkscape:version="0.91 r13725"
   sodipodi:docname="bear.svg">
  <defs
     id="defs4" />
  <sodipodi:namedview
     id="base"
     pagecolor="#ffffff"
     bordercolor="#666666"
     borderopacity="1.0"
     inkscape:pageopacity="0.0"
     inkscape:pageshadow="2"
     inkscape:zoom="0.7"
     inkscape:cx="679.27509"
     inkscape:cy="519.10668"
     inkscape:document-units="px"
     inkscape:current-layer="layer1"
     showgrid="false"
     inkscape:window-width="1920"
     inkscape:window-height="1017"
     inkscape:window-x="0"
     inkscape:window-y="0"
     inkscape:window-maximized="1" />
  <metadata
     id="metadata7">
    <rdf:RDF>
      <cc:Work
         rdf:about="">
        <dc:format>image/svg+xml</dc:format>
        <dc:type
           rdf:resource="http://purl.org/dc/dcmitype/StillImage" />
        <dc:title></dc:title>
      </cc:Work>
    </rdf:RDF>
  </metadata>
  <g
     inkscape:label="Layer 1"
     inkscape:groupmode="layer"
     id="layer1">
    <path
       style="fill:none;fill-rule:evenodd;stroke:#000000;stroke-width:1px;stroke-linecap:butt;stroke-linejoin:miter;stroke-opacity:1"
       d="m 47.142857,328.07649 24.285715,274.28571 78.571428,70 -51.428571,30 -50,72.85715 2.857143,107.14285 60.000008,107.14286 115.71428,32.85714 200,10 L 644.28572,990.93363 710,875.21935 708.57143,760.93363 651.42858,693.79077 532.85715,616.64792 l 108.57143,-45.71429 77.14285,-85.71428 0,-127.14286 -45.71428,-121.42857 -18.57143,-84.28572 38.57143,-40 -14.28572,-59.999996 -64.28571,-28.571428 -132.85714,2.857142 -84.28572,47.142857 5.71429,49.999995 0,74.28572 -98.57143,4.28571 -71.42857,-52.85714 8.57143,-59.999999 7.14285,-41.428572 L 137.14286,28.07649 65.714286,39.505061 18.571429,122.3622 l 30,77.14286 48.571428,55.71429 z"
       id="path3336"
       inkscape:connector-curvature="0">
      <desc
         id="desc3363">ground</desc>
    </path>
  </g>
</svg>
