<?xml version="1.0" encoding="UTF-8" standalone="no"?>
<!-- Created with Inkscape (http://www.inkscape.org/) -->

<svg
   xmlns:dc="http://purl.org/dc/elements/1.1/"
   xmlns:cc="http://creativecommons.org/ns#"
   xmlns:rdf="http://www.w3.org/1999/02/22-rdf-syntax-ns#"
   xmlns:svg="http://www.w3.org/2000/svg"
   xmlns="http://www.w3.org/2000/svg"
   xmlns:sodipodi="http://sodipodi.sourceforge.net/DTD/sodipodi-0.dtd"
   xmlns:inkscape="http://www.inkscape.org/namespaces/inkscape"
   width="320"
   height="560"
   viewBox="0 0 320 560.00001"
   id="svg2"
   version="1.1"
   inkscape:version="0.91 r13725"
   sodipodi:docname="bear.svg">
  <sodipodi:namedview
     id="base"
     pagecolor="#ffffff"
     bordercolor="#666666"
     borderopacity="1.0"
     inkscape:pageopacity="0.0"
     inkscape:pageshadow="2"
     inkscape:zoom="1.979899"
     inkscape:cx="192.51242"
     inkscape:cy="202.82007"
     inkscape:document-units="px"
     inkscape:current-layer="layer1"
     showgrid="false"
     inkscape:window-width="1920"
     inkscape:window-height="1017"
     inkscape:window-x="0"
     inkscape:window-y="0"
     inkscape:window-maximized="1"
     units="px" />
  <defs
     id="defs4" />
  <metadata
     id="metadata7">
    <rdf:RDF>
      <cc:Work
         rdf:about="">
        <dc:format>image/svg+xml</dc:format>
        <dc:type
           rdf:resource="http://purl.org/dc/dcmitype/StillImage" />
        <dc:title />
      </cc:Work>
    </rdf:RDF>
  </metadata>
  <g
     id="layer1"
     inkscape:groupmode="layer"
     inkscape:label="Layer 1">
    <path
       id="path3336"
       d="m 29.694893,211.52391 11.164728,160.67558 31.499329,28.06304 -20.617743,12.02702 -20.045027,29.20847 1.14543,42.95362 24.054036,42.95362 46.389914,13.1725 80.18011,4.009 87.0527,-16.6088 26.34489,-46.38989 -0.57272,-45.81721 -22.9086,-26.91761 -47.53535,-30.92661 43.52635,-18.32688 30.92661,-34.3629 0,-50.97165 -42.61259,-88.68078 13.98327,-93.79019 15.46331,-16.03602 -5.72715,-24.05403 -25.77218,-11.45431 -53.2625,1.14543 -33.79019,18.8996 2.29086,20.04503 7.14286,86.92404 -41.6602,18.861 -20.77861,-41.19046 9.15058,-44.76831 -15.70786,-50.18017 -44.671778,-8.01801 -28.635755,4.58172 -18.899597,33.21747 12.027017,30.92662 19.472312,22.33589 -18.616456,78.49418"
       style="fill:none;fill-rule:evenodd;stroke:#000000;stroke-width:0.56695896;stroke-linecap:butt;stroke-linejoin:miter;stroke-opacity:1"
       inkscape:connector-curvature="0"
       sodipodi:nodetypes="cccccccccccccccccccccccccccccccccccc">
      <desc
         id="desc3363">#ground
#static</desc>
    </path>
    <ellipse
       style="fill:#ff0000;fill-rule:evenodd;stroke:#000000;stroke-width:1.76100647;stroke-linecap:butt;stroke-linejoin:miter;stroke-opacity:1"
       id="path3355-7"
       cx="199.40572"
       cy="434.80023"
       rx="4.5597486"
       ry="4.5597482">
      <desc
         id="desc3371-5">#ball</desc>
    </ellipse>
    <path
       style="fill:#000000;fill-opacity:1;fill-rule:evenodd;stroke:none;stroke-width:1px;stroke-linecap:butt;stroke-linejoin:miter;stroke-opacity:1"
       d="m 174.10804,497.55693 29.28571,-17.5 10.71429,-0.35714 6.78571,7.5 -2.14285,5.71428 -6.42858,5.35715 -33.21428,9.64285 -7.85714,-2.14285 -1.07143,-3.57143 z"
       id="path3423"
       inkscape:connector-curvature="0">
      <desc
         id="desc3449">#flipper
#right</desc>
    </path>
    <path
       style="fill:#000000;fill-opacity:1;fill-rule:evenodd;stroke:none;stroke-width:1px;stroke-linecap:butt;stroke-linejoin:miter;stroke-opacity:1"
       d="m 140.62656,498.59516 -29.28571,-17.5 -10.71429,-0.35714 -6.785705,7.5 2.14285,5.71428 6.428575,5.35715 33.21428,9.64285 7.85714,-2.14285 1.07143,-3.57143 z"
       id="path3423-6"
       inkscape:connector-curvature="0">
      <desc
         id="desc3449-2">#flipper
#left</desc>
    </path>
    <path
       style="fill:none;fill-rule:evenodd;stroke:#000000;stroke-width:1px;stroke-linecap:butt;stroke-linejoin:miter;stroke-opacity:1"
       d="m 83.337584,424.13448 -19.192898,13.13199 -1.515229,24.24366 20.203051,13.63706 14.647212,2.52538"
       id="path4928"
       inkscape:connector-curvature="0" />
    <path
       style="fill:none;fill-rule:evenodd;stroke:#000000;stroke-width:1px;stroke-linecap:butt;stroke-linejoin:miter;stroke-opacity:1"
       d="m 227.28432,419.5888 17.67767,13.63706 0.50508,17.17259 -13.63706,16.66752 -16.16244,9.09137"
       id="path4930"
       inkscape:connector-curvature="0" />
  </g>
</svg>
