<?xml version="1.0" encoding="UTF-8" standalone="no"?>
<!-- Created with Inkscape (http://www.inkscape.org/) -->

<svg
   xmlns:dc="http://purl.org/dc/elements/1.1/"
   xmlns:cc="http://creativecommons.org/ns#"
   xmlns:rdf="http://www.w3.org/1999/02/22-rdf-syntax-ns#"
   xmlns:svg="http://www.w3.org/2000/svg"
   xmlns="http://www.w3.org/2000/svg"
   xmlns:sodipodi="http://sodipodi.sourceforge.net/DTD/sodipodi-0.dtd"
   xmlns:inkscape="http://www.inkscape.org/namespaces/inkscape"
   width="320"
   height="560"
   viewBox="0 0 320 560.00001"
   id="svg2"
   version="1.1"
   inkscape:version="0.92.2 (5c3e80d, 2017-08-06)"
   sodipodi:docname="bedtime.svg">
  <sodipodi:namedview
     id="base"
     pagecolor="#ffffff"
     bordercolor="#666666"
     borderopacity="1.0"
     inkscape:pageopacity="0.0"
     inkscape:pageshadow="2"
     inkscape:zoom="2.8"
     inkscape:cx="155.52673"
     inkscape:cy="327.67076"
     inkscape:document-units="px"
     inkscape:current-layer="layer1"
     showgrid="false"
     inkscape:window-width="1920"
     inkscape:window-height="986"
     inkscape:window-x="-11"
     inkscape:window-y="1609"
     inkscape:window-maximized="1"
     units="px"
     inkscape:object-nodes="false"
     inkscape:snap-others="true"
     inkscape:snap-global="false" />
  <defs
     id="defs4" />
  <metadata
     id="metadata7">
    <rdf:RDF>
      <cc:Work
         rdf:about="">
        <dc:format>image/svg+xml</dc:format>
        <dc:type
           rdf:resource="http://purl.org/dc/dcmitype/StillImage" />
        <dc:title></dc:title>
      </cc:Work>
    </rdf:RDF>
  </metadata>
  <g
     inkscape:label="Layer 1"
     inkscape:groupmode="layer"
     id="layer1">
    <path
       style="opacity:1;fill:#ff95ff;fill-opacity:1;stroke:none;stroke-width:0.86000001;stroke-linecap:round;stroke-miterlimit:4;stroke-dasharray:none;stroke-opacity:1"
       d="m 296.3535,462.0152 a 16.541248,16.541248 0 0 1 -16.54124,16.54125 16.541248,16.541248 0 0 1 -16.54125,-16.54125 16.541248,16.541248 0 0 1 16.54125,-16.54125 16.541248,16.541248 0 0 1 16.54124,16.54125 z"
       id="path1069">
      <desc
         id="desc1266">#goal</desc>
    </path>
    <path
       d="m 77.573093,147.83056 c 0,0 -10.226656,-10.73088 -10.226656,-10.73088 0,0 -14.637466,2.34093 -14.637466,2.34093 0,0 7.045452,-13.04215 7.045452,-13.04215 0,0 -6.749582,-13.19766 -6.749582,-13.19766 0,0 14.580959,2.67037 14.580959,2.67037 0,0 10.466008,-10.49758 10.466008,-10.49758 0,0 1.966091,14.69257 1.966091,14.69257 0,0 13.217951,6.70978 13.217951,6.70978 0,0 -13.365915,6.41009 -13.365915,6.41009 0,0 -2.296842,14.64453 -2.296842,14.64453"
       id="path4728"
       style="opacity:1;fill:none;fill-opacity:1;stroke:#e4c451;stroke-width:1.5084945;stroke-linecap:round;stroke-miterlimit:4;stroke-dasharray:none;stroke-opacity:1"
       inkscape:connector-curvature="0">
      <desc
         id="desc4956">#collect
group=Stars</desc>
    </path>
    <path
       d="m 121.00436,201.20078 c 0,0 -4.08705,-13.35022 -4.08705,-13.35022 0,0 -13.31462,-4.20157 -13.31462,-4.20157 0,0 11.43381,-8.01242 11.43381,-8.01242 0,0 -0.11842,-13.96128 -0.11842,-13.96128 0,0 11.15356,8.39819 11.15356,8.39819 0,0 13.24132,-4.42692 13.24132,-4.42692 0,0 -4.54049,13.20281 -4.54049,13.20281 0,0 8.30204,11.22527 8.30204,11.22527 0,0 -13.95972,-0.23851 -13.95972,-0.23851 0,0 -8.11037,11.36465 -8.11037,11.36465"
       id="path4730"
       style="opacity:1;fill:none;fill-opacity:1;stroke:#e4c451;stroke-width:1.5084945;stroke-linecap:round;stroke-miterlimit:4;stroke-dasharray:none;stroke-opacity:1"
       inkscape:connector-curvature="0">
      <desc
         id="desc4952">#collect
group=Stars</desc>
    </path>
    <path
       d="m 230.13525,256.9328 c 0,0 -3.65548,-4.61831 -3.65548,-4.61831 0,0 -5.87679,0.39315 -5.87679,0.39315 0,0 3.26265,-4.90371 3.26265,-4.90371 0,0 -2.18992,-5.46768 -2.18992,-5.46768 0,0 5.67193,1.58764 5.67193,1.58764 0,0 4.52335,-3.77233 4.52335,-3.77233 0,0 0.2429,5.8849 0.2429,5.8849 0,0 4.98548,3.13626 4.98548,3.13626 0,0 -5.52188,2.04944 -5.52188,2.04944 0,0 -1.44224,5.71064 -1.44224,5.71064"
       id="path4732"
       style="opacity:1;fill:#77c0ff;fill-opacity:1;stroke:none;stroke-width:0.86000001;stroke-linecap:round;stroke-miterlimit:4;stroke-dasharray:none;stroke-opacity:1"
       inkscape:connector-curvature="0">
      <desc
         id="desc4930">#bumper</desc>
    </path>
    <path
       d="m 230.25955,220.23225 c 0,0 -12.10668,0.31544 -12.10668,0.31544 0,0 -6.60361,10.15198 -6.60361,10.15198 0,0 -4.04123,-11.41667 -4.04123,-11.41667 0,0 -11.69584,-3.14327 -11.69584,-3.14327 0,0 9.60919,-7.37134 9.60919,-7.37134 0,0 -0.6248,-12.0947 -0.6248,-12.0947 0,0 9.97995,6.86093 9.97995,6.86093 0,0 11.3097,-4.33164 11.3097,-4.33164 0,0 -3.44117,11.61165 -3.44117,11.61165 0,0 7.61449,9.41762 7.61449,9.41762"
       id="path4734"
       style="opacity:1;fill:none;fill-opacity:1;stroke:#e4c451;stroke-width:1.5084945;stroke-linecap:round;stroke-miterlimit:4;stroke-dasharray:none;stroke-opacity:1"
       inkscape:connector-curvature="0">
      <desc
         id="desc4962">#collect
group=Stars
singlePoints=15
comboPoints=25</desc>
    </path>
    <path
       d="m 156.77528,193.03859 c 0,0 2.04325,-3.76083 2.04325,-3.76083 0,0 -1.93977,-3.81518 -1.93977,-3.81518 0,0 4.20814,0.78104 4.20814,0.78104 0,0 3.0291,-3.02378 3.0291,-3.02378 0,0 0.55755,4.24352 0.55755,4.24352 0,0 3.81182,1.94643 3.81182,1.94643 0,0 -3.86354,1.84157 -3.86354,1.84157 0,0 -0.67323,4.22677 -0.67323,4.22677 0,0 -2.9454,-3.10539 -2.9454,-3.10539 0,0 -4.22792,0.66585 -4.22792,0.66585"
       id="path4742"
       style="opacity:1;fill:#77c0ff;fill-opacity:1;stroke:none;stroke-width:0.86000001;stroke-linecap:round;stroke-miterlimit:4;stroke-dasharray:none;stroke-opacity:1"
       inkscape:connector-curvature="0">
      <desc
         id="desc4954">#bumper</desc>
    </path>
    <path
       d="m 31.762956,160.24298 c 0,0 -6.613785,-1.78205 -6.613785,-1.78205 0,0 -5.217458,4.43795 -5.217458,4.43795 0,0 -0.348925,-6.84073 -0.348925,-6.84073 0,0 -5.833037,-3.59071 -5.833037,-3.59071 0,0 6.398102,-2.44575 6.398102,-2.44575 0,0 1.612433,-6.65715 1.612433,-6.65715 0,0 4.303172,5.3292 4.303172,5.3292 0,0 6.829629,-0.52367 6.829629,-0.52367 0,0 -3.738632,5.73938 -3.738632,5.73938 0,0 2.608501,6.33353 2.608501,6.33353"
       id="path4748"
       style="opacity:1;fill:#77c0ff;fill-opacity:1;stroke:none;stroke-width:0.86000001;stroke-linecap:round;stroke-miterlimit:4;stroke-dasharray:none;stroke-opacity:1"
       inkscape:connector-curvature="0">
      <desc
         id="desc4958">#bumper</desc>
    </path>
    <path
       d="m 70.443087,244.74888 c 0,0 -7.073696,-1.78446 -7.073696,-1.78446 0,0 -5.480177,4.8155 -5.480177,4.8155 0,0 -0.488759,-7.27892 -0.488759,-7.27892 0,0 -6.273281,-3.72387 -6.273281,-3.72387 0,0 6.77161,-2.71416 6.77161,-2.71416 0,0 1.603058,-7.11696 1.603058,-7.11696 0,0 4.673863,5.60146 4.673863,5.60146 0,0 7.264007,-0.67467 7.264007,-0.67467 0,0 -3.882987,6.17606 -3.882987,6.17606 0,0 2.886362,6.70002 2.886362,6.70002"
       id="path4750"
       style="opacity:1;fill:#77c0ff;fill-opacity:1;stroke:none;stroke-width:0.86000001;stroke-linecap:round;stroke-miterlimit:4;stroke-dasharray:none;stroke-opacity:1"
       inkscape:connector-curvature="0">
      <desc
         id="desc4960">#bumper</desc>
    </path>
    <path
       d="m 258.81093,228.81895 c 0,0 9.11854,-12.02753 9.11854,-12.02753 0,0 -4.73855,-14.33013 -4.73855,-14.33013 0,0 14.25657,4.95557 14.25657,4.95557 0,0 12.16454,-8.93496 12.16454,-8.93496 0,0 -0.30785,15.09019 -0.30785,15.09019 0,0 12.25669,8.80817 12.25669,8.80817 0,0 -14.44665,4.37067 -14.44665,4.37067 0,0 -4.58954,14.37862 -4.58954,14.37862 0,0 -8.62101,-12.38894 -8.62101,-12.38894 0,0 -15.09279,0.0745 -15.09279,0.0745"
       id="path4752"
       style="opacity:1;fill:none;fill-opacity:1;stroke:#e4c451;stroke-width:1.5084945;stroke-linecap:round;stroke-miterlimit:4;stroke-dasharray:none;stroke-opacity:1"
       inkscape:connector-curvature="0">
      <desc
         id="desc4932">#collect
group=Stars</desc>
    </path>
    <path
       d="m 251.19729,189.72012 c 0,0 0.30649,-5.88554 0.30649,-5.88554 0,0 -4.67458,-3.58906 -4.67458,-3.58906 0,0 5.69218,-1.52725 5.69218,-1.52725 0,0 1.96889,-5.55491 1.96889,-5.55491 0,0 3.21147,4.94166 3.21147,4.94166 0,0 5.89144,0.15602 5.89144,0.15602 0,0 -3.70739,4.58133 -3.70739,4.58133 0,0 1.67222,5.65128 1.67222,5.65128 0,0 -5.50277,-2.11024 -5.50277,-2.11024 0,0 -4.85795,3.33671 -4.85795,3.33671"
       id="path4758"
       style="opacity:1;vector-effect:none;fill:#77c0ff;fill-opacity:1;stroke:none;stroke-width:0.86000001;stroke-linecap:round;stroke-linejoin:miter;stroke-miterlimit:4;stroke-dasharray:none;stroke-dashoffset:0;stroke-opacity:1"
       inkscape:connector-curvature="0">
      <desc
         id="desc4950">#bumper</desc>
    </path>
    <path
       id="path4772"
       d="m 161.41304,134.04092 c 0,0 8.09142,-4.02632 8.09142,-4.02632 0,0 7.08281,-5.8726 7.08281,-5.8726 0,0 5.65854,-7.55358 5.65854,-7.55358 0,0 3.87232,-9.23677 3.87232,-9.23677 0,0 1.43704,-11.012833 1.43704,-11.012833 0,0 -1.60296,-10.70666 -1.60296,-10.70666 0,0 -3.68209,-8.613133 -3.68209,-8.613133 0,0 -5.73785,-7.65332 -5.73785,-7.65332 0,0 -7.40312,-6.05582 -7.40312,-6.05582 0,0 -9.30933,-4.32468 -9.30933,-4.32468 0,0 -9.01149,-1.72469 -9.01149,-1.72469 0,0 -10.1168,0.56004 -10.1168,0.56004 0,0 -9.96436,3.25964 -9.96436,3.25964 0,0 -9.32861,6.25837 -9.32861,6.25837 0,0 -6.54148,7.5956 -6.54148,7.5956 0,0 -3.58083,6.75099 -3.58083,6.75099 0,0 7.95038,-2.00295 7.95038,-2.00295 0,0 8.58534,-0.28943 8.58534,-0.28943 0,0 9.86349,2.04011 9.86349,2.04011 0,0 7.40116,3.433903 7.40116,3.433903 0,0 6.84841,5.16154 6.84841,5.16154 0,0 6.23178,7.50023 6.23178,7.50023 0,0 3.20343,6.110263 3.20343,6.110263 0,0 2.51917,8.73096 2.51917,8.73096 0,0 0.47804,8.82288 0.47804,8.82288 0,0 -0.73344,5.61926 -0.73344,5.61926 0,0 -2.21097,7.229 -2.21097,7.229"
       style="fill:#77c0ff;fill-opacity:0.51960784;stroke:none;stroke-width:0.34343877;stroke-linecap:butt;stroke-linejoin:miter;stroke-opacity:1"
       inkscape:connector-curvature="0">
      <desc
         id="desc4964">#bumper</desc>
    </path>
    <g
       id="text4968"
       style="font-style:normal;font-weight:normal;font-size:10.58333302px;line-height:1.25;font-family:sans-serif;letter-spacing:0px;word-spacing:0px;fill:#77c0ff;fill-opacity:1;stroke:none;stroke-width:0.33173639"
       aria-label="z"
       transform="translate(1.0101525,18.687823)">
      <desc
         id="desc4991">#bumper</desc>
      <path
         id="path4978"
         style="fill:#77c0ff;fill-opacity:1;stroke-width:0.33173639"
         d="m 199.27912,123.28487 c 0,0 14.29995,-3.83166 14.29995,-3.83166 0,0 0.73651,2.74871 0.73651,2.74871 0,0 -7.793,16.20477 -7.793,16.20477 0,0 11.32216,-3.03377 11.32216,-3.03377 0,0 0.64446,2.40517 0.64446,2.40517 0,0 -14.70902,3.94127 -14.70902,3.94127 0,0 -0.73652,-2.74876 -0.73652,-2.74876 0,0 7.793,-16.20476 7.793,-16.20476 0,0 -10.91309,2.92415 -10.91309,2.92415 0,0 -0.64445,-2.40512 -0.64445,-2.40512"
         inkscape:connector-curvature="0" />
    </g>
    <g
       id="text4972"
       style="font-style:normal;font-weight:normal;font-size:15.95926857px;line-height:1.25;font-family:sans-serif;letter-spacing:0px;word-spacing:0px;fill:#77c0ff;fill-opacity:1;stroke:none;stroke-width:0.50024599"
       aria-label="z"
       transform="translate(1.0101525,18.687823)">
      <desc
         id="desc4987">#bumper
</desc>
      <path
         id="path4981"
         style="fill:#77c0ff;fill-opacity:1;stroke-width:0.50024605"
         d="m 226.03578,94.801701 c 0,0 21.56378,-5.777998 21.56378,-5.777998 0,0 1.11065,4.14499 1.11065,4.14499 0,0 -11.75156,24.436197 -11.75156,24.436197 0,0 17.0734,-4.57481 17.0734,-4.57481 0,0 0.97181,3.62685 0.97181,3.62685 0,0 -22.18061,5.94328 -22.18061,5.94328 0,0 -1.11064,-4.14496 -1.11064,-4.14496 0,0 11.75155,-24.436224 11.75155,-24.436224 0,0 -16.45657,4.409523 -16.45657,4.409523 0,0 -0.97181,-3.626848 -0.97181,-3.626848"
         inkscape:connector-curvature="0" />
    </g>
    <g
       id="text4976"
       style="font-style:normal;font-weight:normal;font-size:24.51189423px;line-height:1.25;font-family:sans-serif;letter-spacing:0px;word-spacing:0px;fill:#77c0ff;fill-opacity:1;stroke:none;stroke-width:0.7683295"
       aria-label="z"
       transform="translate(1.0101525,18.687823)">
      <desc
         id="desc4989">#bumper</desc>
      <path
         id="path4984"
         style="fill:#77c0ff;fill-opacity:1;stroke-width:0.7683295"
         d="m 259.71964,58.567082 c 0,0 33.11989,-8.874447 33.11989,-8.874447 0,0 1.70584,6.366291 1.70584,6.366291 0,0 -18.04924,37.53162 -18.04924,37.53162 0,0 26.22308,-7.026454 26.22308,-7.026454 0,0 1.49261,5.570514 1.49261,5.570514 0,0 -34.06727,9.128294 -34.06727,9.128294 0,0 -1.70584,-6.366289 -1.70584,-6.366289 0,0 18.04925,-37.531651 18.04925,-37.531651 0,0 -25.27571,6.772606 -25.27571,6.772606 0,0 -1.49261,-5.570484 -1.49261,-5.570484"
         inkscape:connector-curvature="0" />
    </g>
    <path
       style="fill:#ff0000;fill-opacity:0.68627451;fill-rule:evenodd;stroke:none;stroke-width:0.48569587;stroke-linecap:butt;stroke-linejoin:miter;stroke-opacity:1"
       d="m 254.57823,344.60039 c 0,0 28.63665,-7.86627 28.63665,-7.86627 0,0 7.05316,2.85141 7.05316,2.85141 0,0 3.19949,5.45677 3.19949,5.45677 0,0 -3.6029,6.01056 -3.6029,6.01056 0,0 -7.09166,2.29761 -7.09166,2.29761 0,0 -28.19474,-8.75008 -28.19474,-8.75008"
       id="path5908-1"
       inkscape:connector-curvature="0">
      <desc
         id="desc5910-1">#flipper
side=right</desc>
    </path>
    <path
       style="stroke-linejoin:miter;stroke-opacity:1;fill-opacity:0.68627451;fill-rule:evenodd;stroke:none;stroke-linecap:butt;stroke-width:0.48569586;fill:#ff0000"
       d="M250.07828 344.52362C250.07828 344.52362 221.44161 336.65738 221.44161 336.65738C221.44161 336.65738 214.38847 339.50876 214.38847 339.50876C214.38847 339.50876 211.18898 344.96555 211.18898 344.96555C211.18898 344.96555 214.79188 350.97614 214.79188 350.97614C214.79188 350.97614 221.88354 353.2737 221.88354 353.2737C221.88354 353.2737 250.07828 344.52362 250.07828 344.52362"
       id="path5908-0-4">
      <desc
         id="desc5910-6-7">#flipper
side=left</desc>
    </path>
    <path
       id="rect6100"
       d="M2.5156937 495.32318C2.5156937 495.32318 319.77001 495.32318 319.77001 495.32318C319.77001 495.32318 319.77001 528.77462 319.77001 528.77462C319.77001 528.77462 2.5156937 528.77462 2.5156937 528.77462C2.5156937 528.77462 2.5156937 495.32318 2.5156937 495.32318"
       style="stroke-opacity:1;fill-opacity:1;stroke:none;stroke-miterlimit:4;stroke-dasharray:none;stroke-width:0.64880854;fill:#ff95ff" />
    <path
       transform="matrix(1.000000,0.000000,0.000000,1.000000,0.000000,0.000000)"
       style="opacity:1;fill:#ffc06f;fill-opacity:1;stroke:none;stroke-width:1.2498163;stroke-linecap:round;stroke-miterlimit:4;stroke-dasharray:none;stroke-opacity:1"
       d="m 2.5156937,494.84604 h 8.9128783 v 64.43967 H 2.5156937 Z"
       id="rect1040" />
    <path
       transform="matrix(1.000000,0.000000,0.000000,1.000000,0.000000,0.000000)"
       style="opacity:1;fill:#ffc06f;fill-opacity:1;stroke:none;stroke-width:1.69900072;stroke-linecap:round;stroke-miterlimit:4;stroke-dasharray:none;stroke-opacity:1"
       d="m 310.85715,440.20316 h 8.91288 v 119.08252 h -8.91288 z"
       id="rect1040-4" />
    <path
       style="stroke-linejoin:miter;stroke-opacity:1;fill-opacity:1;stroke:none;stroke-linecap:butt;stroke-width:2.0;fill:#ffd2ff"
       d="M298.24754 475.90481C298.24754 475.90481 278.04449 474.38958 278.04449 474.38958C278.04449 474.38958 264.65997 476.15735 264.65997 476.15735C264.65997 476.15735 253.29575 479.94542 253.29575 479.94542C253.29575 479.94542 250.2653 483.48095 250.2653 483.48095C250.2653 483.48095 249.76022 491.0571 249.76022 491.0571C249.76022 491.0571 255.31606 495.85532 255.31606 495.85532C255.31606 495.85532 277.03434 498.88578 277.03434 498.88578C277.03434 498.88578 298.24754 496.3604 298.24754 496.3604C298.24754 496.3604 306.07622 493.83502 306.07622 493.83502C306.07622 493.83502 311.37953 488.02664 311.37953 488.02664C311.37953 488.02664 312.13714 479.44034 312.13714 479.44034C312.13714 479.44034 298.24754 475.90481 298.24754 475.90481"
       id="path1059" />
    <path
       style="stroke-linejoin:miter;stroke-opacity:1;fill-opacity:1;stroke:none;stroke-linecap:butt;stroke-width:2.0;fill:#ed77ed"
       d="M252.2856 496.61293C252.2856 496.61293 255.31605 486.00633 255.31605 486.00633C255.31605 486.00633 253.29575 474.13704 253.29575 474.13704C253.29575 474.13704 240.92138 470.09642 240.92138 470.09642C240.92138 470.09642 218.44549 467.82358 218.44549 467.82358C218.44549 467.82358 202.53558 472.87434 202.53558 472.87434C202.53558 472.87434 183.34269 470.34896 183.34269 470.34896C183.34269 470.34896 167.43278 466.30835 167.43278 466.30835C167.43278 466.30835 145.46196 472.62181 145.46196 472.62181C145.46196 472.62181 100.51017 473.63196 100.51017 473.63196C100.51017 473.63196 80.307127 471.61165 80.307127 471.61165C80.307127 471.61165 41.92133 475.39973 41.92133 475.39973C41.92133 475.39973 16.16244 473.8845 16.16244 473.8845C16.16244 473.8845 4.2931479 480.19795 4.2931479 480.19795C4.2931479 480.19795 -3.0304572 488.78425 -3.0304572 488.78425C-3.0304572 488.78425 -1.7677672 495.60278 -1.7677672 495.60278C-1.7677672 495.60278 0.25253777 502.16877 0.25253777 502.16877C0.25253777 502.16877 6.5659919 504.44161 6.5659919 504.44161C6.5659919 504.44161 18.687821 500.65354 18.687821 500.65354C18.687821 500.65354 43.689097 494.84516 43.689097 494.84516C43.689097 494.84516 71.72083 498.3807 71.72083 498.3807C71.72083 498.3807 112.37947 498.88577 112.37947 498.88577C112.37947 498.88577 133.0876 494.84516 133.0876 494.84516C133.0876 494.84516 158.84649 496.86547 158.84649 496.86547C158.84649 496.86547 186.87822 498.3807 186.87822 498.3807C186.87822 498.3807 218.95056 494.08755 218.95056 494.08755C218.95056 494.08755 252.2856 496.61293 252.2856 496.61293"
       id="path1061" />
    <path
       style="stroke-linejoin:miter;stroke-opacity:1;stroke:#000000;stroke-linecap:butt;stroke-width:2.0;fill:none"
       d="M279.33256 458.28533C279.33256 458.28533 220.21325 345.84766 220.21325 345.84766C220.21325 345.84766 7.0710678 275.13698 7.0710678 275.13698C7.0710678 275.13698 3.5355339 53.913575 3.5355339 53.913575C3.5355339 53.913575 30.807961 35.685505 30.807961 35.685505C30.807961 35.685505 280.82408 36.271517 280.82408 36.271517C280.82408 36.271517 318.70313 53.408499 318.70313 53.408499C318.70313 53.408499 316.68282 276.14714 316.68282 276.14714C316.68282 276.14714 284.86302 343.32228 284.86302 343.32228C284.86302 343.32228 279.33256 458.28533 279.33256 458.28533"
       id="path1065">
      <desc
         id="desc1067">#ground
#static</desc>
    </path>
    <ellipse
       style="fill:#e30000;fill-opacity:1;fill-rule:evenodd;stroke:none;stroke-width:4.98087835;stroke-linecap:butt;stroke-linejoin:miter;stroke-opacity:1"
       id="path3355-7-8"
       cx="67.175148"
       cy="195.33495"
       rx="4.2152963"
       ry="4.2152958">
      <desc
         id="desc3371-5">#ball</desc>
    </ellipse>
  </g>
</svg>
