<?xml version="1.0" encoding="UTF-8" standalone="no"?>
<!-- Created with Inkscape (http://www.inkscape.org/) -->

<svg
   xmlns:dc="http://purl.org/dc/elements/1.1/"
   xmlns:cc="http://creativecommons.org/ns#"
   xmlns:rdf="http://www.w3.org/1999/02/22-rdf-syntax-ns#"
   xmlns:svg="http://www.w3.org/2000/svg"
   xmlns="http://www.w3.org/2000/svg"
   xmlns:sodipodi="http://sodipodi.sourceforge.net/DTD/sodipodi-0.dtd"
   xmlns:inkscape="http://www.inkscape.org/namespaces/inkscape"
   width="320"
   height="560"
   viewBox="0 0 320 560.00001"
   id="svg2"
   version="1.1"
   inkscape:version="0.92.2 (5c3e80d, 2017-08-06)"
   sodipodi:docname="bedtime.svg">
  <sodipodi:namedview
     id="base"
     pagecolor="#ffffff"
     bordercolor="#666666"
     borderopacity="1.0"
     inkscape:pageopacity="0.0"
     inkscape:pageshadow="2"
     inkscape:zoom="1.979899"
     inkscape:cx="110.31369"
     inkscape:cy="271.55753"
     inkscape:document-units="px"
     inkscape:current-layer="layer1"
     showgrid="false"
     inkscape:window-width="1920"
     inkscape:window-height="986"
     inkscape:window-x="-11"
     inkscape:window-y="1609"
     inkscape:window-maximized="1"
     units="px"
     inkscape:object-nodes="false"
     inkscape:snap-others="true"
     inkscape:snap-global="false" />
  <defs
     id="defs4" />
  <metadata
     id="metadata7">
    <rdf:RDF>
      <cc:Work
         rdf:about="">
        <dc:format>image/svg+xml</dc:format>
        <dc:type
           rdf:resource="http://purl.org/dc/dcmitype/StillImage" />
        <dc:title></dc:title>
      </cc:Work>
    </rdf:RDF>
  </metadata>
  <g
     inkscape:label="Layer 1"
     inkscape:groupmode="layer"
     id="layer1">
    <path
       style="opacity:1;fill:#ff95ff;fill-opacity:1;stroke:none;stroke-width:0.86000001;stroke-linecap:round;stroke-miterlimit:4;stroke-dasharray:none;stroke-opacity:1"
       d="m 296.3535,462.0152 a 16.541248,16.541248 0 0 1 -16.54124,16.54125 16.541248,16.541248 0 0 1 -16.54125,-16.54125 16.541248,16.541248 0 0 1 16.54125,-16.54125 16.541248,16.541248 0 0 1 16.54124,16.54125 z"
       id="path1069">
      <desc
         id="desc1266">#goal</desc>
    </path>
    <path
       d="M76.56294 119.04121C76.56294 119.04121 66.336284 108.31033 66.336284 108.31033C66.336284 108.31033 51.698818 110.65126 51.698818 110.65126C51.698818 110.65126 58.74427 97.60911 58.74427 97.60911C58.74427 97.60911 51.994688 84.41145 51.994688 84.41145C51.994688 84.41145 66.575647 87.08182 66.575647 87.08182C66.575647 87.08182 77.041655 76.58424 77.041655 76.58424C77.041655 76.58424 79.007746 91.27681 79.007746 91.27681C79.007746 91.27681 92.225697 97.98659 92.225697 97.98659C92.225697 97.98659 78.859782 104.39668 78.859782 104.39668C78.859782 104.39668 76.56294 119.04121 76.56294 119.04121"
       id="path4728"
       style="opacity:1;stroke-opacity:1;fill-opacity:1;stroke:#e4c451;stroke-linecap:round;stroke-miterlimit:4;stroke-dasharray:none;stroke-width:1.50849454196;fill:none">
      <desc
         id="desc4956">#collect
group=Stars</desc>
    </path>
    <path
       d="M119.99421 172.41143C119.99421 172.41143 115.90716 159.06121 115.90716 159.06121C115.90716 159.06121 102.59254 154.85964 102.59254 154.85964C102.59254 154.85964 114.02635 146.84722 114.02635 146.84722C114.02635 146.84722 113.90793 132.88594 113.90793 132.88594C113.90793 132.88594 125.06149 141.28413 125.06149 141.28413C125.06149 141.28413 138.30281 136.85721 138.30281 136.85721C138.30281 136.85721 133.76232 150.06002 133.76232 150.06002C133.76232 150.06002 142.06436 161.28529 142.06436 161.28529C142.06436 161.28529 128.10464 161.04678 128.10464 161.04678C128.10464 161.04678 119.99427 172.41143 119.99427 172.41143"
       id="path4730"
       style="opacity:1;stroke-opacity:1;fill-opacity:1;stroke:#e4c451;stroke-linecap:round;stroke-miterlimit:4;stroke-dasharray:none;stroke-width:1.50849454196;fill:none">
      <desc
         id="desc4952">#collect
group=Stars</desc>
    </path>
    <path
       d="M229.1251 228.14345C229.1251 228.14345 225.46962 223.52514 225.46962 223.52514C225.46962 223.52514 219.59283 223.91829 219.59283 223.91829C219.59283 223.91829 222.85548 219.01458 222.85548 219.01458C222.85548 219.01458 220.66556 213.5469 220.66556 213.5469C220.66556 213.5469 226.33749 215.13454 226.33749 215.13454C226.33749 215.13454 230.86084 211.36221 230.86084 211.36221C230.86084 211.36221 231.10374 217.24711 231.10374 217.24711C231.10374 217.24711 236.08922 220.38337 236.08922 220.38337C236.08922 220.38337 230.56734 222.43281 230.56734 222.43281C230.56734 222.43281 229.1251 228.14345 229.1251 228.14345"
       id="path4732"
       style="opacity:1;stroke-opacity:1;fill-opacity:1;stroke:none;stroke-linecap:round;stroke-miterlimit:4;stroke-dasharray:none;stroke-width:0.860000020001;fill:#77c0ff">
      <desc
         id="desc4930">#bumper</desc>
    </path>
    <path
       d="M229.2494 191.4429C229.2494 191.4429 217.14272 191.75834 217.14272 191.75834C217.14272 191.75834 210.53911 201.91032 210.53911 201.91032C210.53911 201.91032 206.49788 190.49365 206.49788 190.49365C206.49788 190.49365 194.80204 187.35038 194.80204 187.35038C194.80204 187.35038 204.41123 179.97904 204.41123 179.97904C204.41123 179.97904 203.78643 167.88434 203.78643 167.88434C203.78643 167.88434 213.76638 174.74527 213.76638 174.74527C213.76638 174.74527 225.07608 170.41363 225.07608 170.41363C225.07608 170.41363 221.63491 182.02528 221.63491 182.02528C221.63491 182.02528 229.2494 191.4429 229.2494 191.4429"
       id="path4734"
       style="opacity:1;stroke-opacity:1;fill-opacity:1;stroke:#e4c451;stroke-linecap:round;stroke-miterlimit:4;stroke-dasharray:none;stroke-width:1.50849454196;fill:none">
      <desc
         id="desc4962">#collect
group=Stars
singlePoints=15
comboPoints=25</desc>
    </path>
    <path
       d="M155.76513 164.24924C155.76513 164.24924 157.80838 160.48841 157.80838 160.48841C157.80838 160.48841 155.86861 156.67323 155.86861 156.67323C155.86861 156.67323 160.07675 157.45427 160.07675 157.45427C160.07675 157.45427 163.10585 154.43049 163.10585 154.43049C163.10585 154.43049 163.6634 158.67401 163.6634 158.67401C163.6634 158.67401 167.47522 160.62044 167.47522 160.62044C167.47522 160.62044 163.61168 162.46201 163.61168 162.46201C163.61168 162.46201 162.93845 166.68878 162.93845 166.68878C162.93845 166.68878 159.99305 163.58339 159.99305 163.58339C159.99305 163.58339 155.76513 164.24924 155.76513 164.24924"
       id="path4742"
       style="opacity:1;stroke-opacity:1;fill-opacity:1;stroke:none;stroke-linecap:round;stroke-miterlimit:4;stroke-dasharray:none;stroke-width:0.860000039852;fill:#77c0ff">
      <desc
         id="desc4954">#bumper</desc>
    </path>
    <path
       d="M30.752803 131.45363C30.752803 131.45363 24.139018 129.67158 24.139018 129.67158C24.139018 129.67158 18.92156 134.10953 18.92156 134.10953C18.92156 134.10953 18.572635 127.2688 18.572635 127.2688C18.572635 127.2688 12.739598 123.67809 12.739598 123.67809C12.739598 123.67809 19.1377 121.23234 19.1377 121.23234C19.1377 121.23234 20.750133 114.57519 20.750133 114.57519C20.750133 114.57519 25.053305 119.90439 25.053305 119.90439C25.053305 119.90439 31.882934 119.38072 31.882934 119.38072C31.882934 119.38072 28.144302 125.1201 28.144302 125.1201C28.144302 125.1201 30.752803 131.45363 30.752803 131.45363"
       id="path4748"
       style="opacity:1;stroke-opacity:1;fill-opacity:1;stroke:none;stroke-linecap:round;stroke-miterlimit:4;stroke-dasharray:none;stroke-width:0.860000039852;fill:#77c0ff">
      <desc
         id="desc4958">#bumper</desc>
    </path>
    <path
       d="M69.432934 215.95953C69.432934 215.95953 62.359238 214.17507 62.359238 214.17507C62.359238 214.17507 56.879061 218.99057 56.879061 218.99057C56.879061 218.99057 56.390302 211.71165 56.390302 211.71165C56.390302 211.71165 50.117021 207.98778 50.117021 207.98778C50.117021 207.98778 56.888631 205.27362 56.888631 205.27362C56.888631 205.27362 58.491689 198.15666 58.491689 198.15666C58.491689 198.15666 63.165552 203.75812 63.165552 203.75812C63.165552 203.75812 70.429559 203.08345 70.429559 203.08345C70.429559 203.08345 66.546572 209.25951 66.546572 209.25951C66.546572 209.25951 69.432934 215.95953 69.432934 215.95953"
       id="path4750"
       style="opacity:1;stroke-opacity:1;fill-opacity:1;stroke:none;stroke-linecap:round;stroke-miterlimit:4;stroke-dasharray:none;stroke-width:0.860000039852;fill:#77c0ff">
      <desc
         id="desc4960">#bumper</desc>
    </path>
    <path
       d="M257.80078 200.0296C257.80078 200.0296 266.91932 188.00207 266.91932 188.00207C266.91932 188.00207 262.18077 173.67194 262.18077 173.67194C262.18077 173.67194 276.43734 178.62751 276.43734 178.62751C276.43734 178.62751 288.60188 169.69255 288.60188 169.69255C288.60188 169.69255 288.29403 184.78274 288.29403 184.78274C288.29403 184.78274 300.55072 193.59091 300.55072 193.59091C300.55072 193.59091 286.10407 197.96158 286.10407 197.96158C286.10407 197.96158 281.51453 212.3402 281.51453 212.3402C281.51453 212.3402 272.89352 199.95126 272.89352 199.95126C272.89352 199.95126 257.80073 200.02576 257.80073 200.02576"
       id="path4752"
       style="opacity:1;stroke-opacity:1;fill-opacity:1;stroke:#e4c451;stroke-linecap:round;stroke-miterlimit:4;stroke-dasharray:none;stroke-width:1.50849447125;fill:none">
      <desc
         id="desc4932">#collect
group=Stars</desc>
    </path>
    <path
       d="M250.18714 160.93077C250.18714 160.93077 250.49363 155.04523 250.49363 155.04523C250.49363 155.04523 245.81905 151.45617 245.81905 151.45617C245.81905 151.45617 251.51123 149.92892 251.51123 149.92892C251.51123 149.92892 253.48012 144.37401 253.48012 144.37401C253.48012 144.37401 256.69159 149.31567 256.69159 149.31567C256.69159 149.31567 262.58303 149.47169 262.58303 149.47169C262.58303 149.47169 258.87564 154.05302 258.87564 154.05302C258.87564 154.05302 260.54786 159.7043 260.54786 159.7043C260.54786 159.7043 255.04509 157.59406 255.04509 157.59406C255.04509 157.59406 250.18714 160.93077 250.18714 160.93077"
       id="path4758"
       style="opacity:1;stroke-linejoin:miter;vector-effect:none;stroke-opacity:1;fill-opacity:1;stroke-dashoffset:0;stroke:none;stroke-linecap:round;stroke-miterlimit:4;stroke-dasharray:none;stroke-width:0.860000020001;fill:#77c0ff">
      <desc
         id="desc4950">#bumper</desc>
    </path>
    <path
       id="path4772"
       d="M164.4435 122.42416C164.4435 122.42416 172.53492 118.39784 172.53492 118.39784C172.53492 118.39784 179.61773 112.52524 179.61773 112.52524C179.61773 112.52524 185.27627 104.97166 185.27627 104.97166C185.27627 104.97166 189.14859 95.734889 189.14859 95.734889C189.14859 95.734889 190.58563 84.722059 190.58563 84.722059C190.58563 84.722059 188.98267 74.015399 188.98267 74.015399C188.98267 74.015399 185.30058 65.402269 185.30058 65.402269C185.30058 65.402269 179.56273 57.748949 179.56273 57.748949C179.56273 57.748949 172.15961 51.693129 172.15961 51.693129C172.15961 51.693129 162.85028 47.368449 162.85028 47.368449C162.85028 47.368449 153.83879 45.643759 153.83879 45.643759C153.83879 45.643759 143.72199 46.203799 143.72199 46.203799C143.72199 46.203799 133.75763 49.463439 133.75763 49.463439C133.75763 49.463439 124.42902 55.721809 124.42902 55.721809C124.42902 55.721809 117.88754 63.317409 117.88754 63.317409C117.88754 63.317409 114.30671 70.068399 114.30671 70.068399C114.30671 70.068399 122.25709 68.065449 122.25709 68.065449C122.25709 68.065449 130.84243 67.776019 130.84243 67.776019C130.84243 67.776019 140.70592 69.816129 140.70592 69.816129C140.70592 69.816129 148.10708 73.250029 148.10708 73.250029C148.10708 73.250029 154.95549 78.411569 154.95549 78.411569C154.95549 78.411569 161.18727 85.911799 161.18727 85.911799C161.18727 85.911799 164.3907 92.022059 164.3907 92.022059C164.3907 92.022059 166.90987 100.75302 166.90987 100.75302C166.90987 100.75302 167.38791 109.5759 167.38791 109.5759C167.38791 109.5759 166.65447 115.19516 166.65447 115.19516C166.65447 115.19516 164.4435 122.42416 164.4435 122.42416"
       style="stroke-linejoin:miter;stroke-opacity:1;fill-opacity:0.51960784;stroke:none;stroke-linecap:butt;stroke-width:0.343438779632;fill:#77c0ff">
      <desc
         id="desc4964">#bumper</desc>
    </path>
    <g
       id="text4968"
       style="stroke-width:0.331736400656;letter-spacing:0px;font-family:sans-serif;fill-opacity:1;font-size:10.58333302px;line-height:1.25;word-spacing:0px;stroke:none;font-weight:normal;font-style:normal;fill:#000000"
       aria-label="z">
      <desc
         id="desc4991">#bumper</desc>
      <path
         id="path4978"
         style="stroke-width:0.331736400656"
         d="M199.279115932 123.284867729C199.279115932 123.284867729 213.579068234 119.453207057 213.579068234 119.453207057C213.579068234 119.453207057 214.315584415 122.201922863 214.315584415 122.201922863C214.315584415 122.201922863 206.522575375 138.406685933 206.522575375 138.406685933C206.522575375 138.406685933 217.844742562 135.372920378 217.844742562 135.372920378C217.844742562 135.372920378 218.489204573 137.778085345 218.489204573 137.778085345C218.489204573 137.778085345 203.780182683 141.719355882 203.780182683 141.719355882C203.780182683 141.719355882 203.04365615 138.970601439 203.04365615 138.970601439C203.04365615 138.970601439 210.83665553 122.765840958 210.83665553 122.765840958C210.83665553 122.765840958 199.923567589 125.689994058 199.923567589 125.689994058C199.923567589 125.689994058 199.279115932 123.284867729 199.279115932 123.284867729" />
    </g>
    <g
       id="text4972"
       style="stroke-width:0.500245988685;letter-spacing:0px;font-family:sans-serif;fill-opacity:1;font-size:15.95926857px;line-height:1.25;word-spacing:0px;stroke:none;font-weight:normal;font-style:normal;fill:#000000"
       aria-label="z">
      <desc
         id="desc4987">#bumper
</desc>
      <path
         id="path4981"
         style="stroke-width:0.500246070647"
         d="M226.035781128 94.8017008153C226.035781128 94.8017008153 247.599563259 89.0237028075 247.599563259 89.0237028075C247.599563259 89.0237028075 248.710210133 93.1686933725 248.710210133 93.1686933725C248.710210133 93.1686933725 236.958647564 117.60488667 236.958647564 117.60488667C236.958647564 117.60488667 254.032053033 113.030081463 254.032053033 113.030081463C254.032053033 113.030081463 255.003864195 116.656930096 255.003864195 116.656930096C255.003864195 116.656930096 232.82325149 122.600207358 232.82325149 122.600207358C232.82325149 122.600207358 231.71261238 118.455245771 231.71261238 118.455245771C231.71261238 118.455245771 243.464157526 94.0190260835 243.464157526 94.0190260835C243.464157526 94.0190260835 227.00759229 98.4285494486 227.00759229 98.4285494486C227.00759229 98.4285494486 226.035781128 94.8017008153 226.035781128 94.8017008153" />
    </g>
    <g
       id="text4976"
       style="stroke-width:0.768329526017;letter-spacing:0px;font-family:sans-serif;fill-opacity:1;font-size:24.51189423px;line-height:1.25;word-spacing:0px;stroke:none;font-weight:normal;font-style:normal;fill:#000000"
       aria-label="z">
      <desc
         id="desc4989">#bumper</desc>
      <path
         id="path4984"
         style="stroke-width:0.768329526017"
         d="M259.719641281 58.5670815851C259.719641281 58.5670815851 292.839528176 49.6926346382 292.839528176 49.6926346382C292.839528176 49.6926346382 294.545370855 56.0589261889 294.545370855 56.0589261889C294.545370855 56.0589261889 276.496125615 93.5905455237 276.496125615 93.5905455237C276.496125615 93.5905455237 302.719205518 86.5640924408 302.719205518 86.5640924408C302.719205518 86.5640924408 304.211820127 92.1346059995 304.211820127 92.1346059995C304.211820127 92.1346059995 270.144553182 101.262902666 270.144553182 101.262902666C270.144553182 101.262902666 268.438710502 94.8966111151 268.438710502 94.8966111151C268.438710502 94.8966111151 286.487957637 57.3649602144 286.487957637 57.3649602144C286.487957637 57.3649602144 261.212248126 64.137566166 261.212248126 64.137566166C261.212248126 64.137566166 259.719641281 58.5670815851 259.719641281 58.5670815851" />
    </g>
    <path
       style="fill:#e30000;fill-opacity:1;fill-rule:evenodd;stroke:none;stroke-width:1.71062684;stroke-linecap:butt;stroke-linejoin:miter;stroke-opacity:1"
       d="m 70.084485,173.46245 a 3.6557584,3.6557584 0 0 1 -3.655759,3.65576 3.6557584,3.6557584 0 0 1 -3.655758,-3.65576 3.6557584,3.6557584 0 0 1 3.655758,-3.65576 3.6557584,3.6557584 0 0 1 3.655759,3.65576 z"
       id="path3355-7">
      <desc
         id="desc1269">#ball</desc>
    </path>
    <path
       style="stroke-linejoin:miter;stroke-opacity:1;fill-opacity:0.68627451;fill-rule:evenodd;stroke:none;stroke-linecap:butt;stroke-width:0.48569586;fill:#ff0000"
       d="M254.57823 343.52896C254.57823 343.52896 283.21488 335.66269 283.21488 335.66269C283.21488 335.66269 290.26804 338.5141 290.26804 338.5141C290.26804 338.5141 293.46753 343.97087 293.46753 343.97087C293.46753 343.97087 289.86463 349.98143 289.86463 349.98143C289.86463 349.98143 282.77297 352.27904 282.77297 352.27904C282.77297 352.27904 254.57823 343.52896 254.57823 343.52896"
       id="path5908-1">
      <desc
         id="desc5910-1">#flipper
side=right</desc>
    </path>
    <path
       style="stroke-linejoin:miter;stroke-opacity:1;fill-opacity:0.68627451;fill-rule:evenodd;stroke:none;stroke-linecap:butt;stroke-width:0.48569586;fill:#ff0000"
       d="M250.07828 344.52362C250.07828 344.52362 221.44161 336.65738 221.44161 336.65738C221.44161 336.65738 214.38847 339.50876 214.38847 339.50876C214.38847 339.50876 211.18898 344.96555 211.18898 344.96555C211.18898 344.96555 214.79188 350.97614 214.79188 350.97614C214.79188 350.97614 221.88354 353.2737 221.88354 353.2737C221.88354 353.2737 250.07828 344.52362 250.07828 344.52362"
       id="path5908-0-4">
      <desc
         id="desc5910-6-7">#flipper
side=left</desc>
    </path>
    <path
       id="rect6100"
       d="M2.5156937 495.32318C2.5156937 495.32318 319.77001 495.32318 319.77001 495.32318C319.77001 495.32318 319.77001 528.77462 319.77001 528.77462C319.77001 528.77462 2.5156937 528.77462 2.5156937 528.77462C2.5156937 528.77462 2.5156937 495.32318 2.5156937 495.32318"
       style="stroke-opacity:1;fill-opacity:1;stroke:none;stroke-miterlimit:4;stroke-dasharray:none;stroke-width:0.64880854;fill:#ff95ff" />
    <path
       transform="matrix(1.000000,0.000000,0.000000,1.000000,0.000000,0.000000)"
       style="opacity:1;fill:#ffc06f;fill-opacity:1;stroke:none;stroke-width:1.2498163;stroke-linecap:round;stroke-miterlimit:4;stroke-dasharray:none;stroke-opacity:1"
       d="m 2.5156937,494.84604 h 8.9128783 v 64.43967 H 2.5156937 Z"
       id="rect1040" />
    <path
       transform="matrix(1.000000,0.000000,0.000000,1.000000,0.000000,0.000000)"
       style="opacity:1;fill:#ffc06f;fill-opacity:1;stroke:none;stroke-width:1.69900072;stroke-linecap:round;stroke-miterlimit:4;stroke-dasharray:none;stroke-opacity:1"
       d="m 310.85715,440.20316 h 8.91288 v 119.08252 h -8.91288 z"
       id="rect1040-4" />
    <path
       style="stroke-linejoin:miter;stroke-opacity:1;fill-opacity:1;stroke:none;stroke-linecap:butt;stroke-width:2.0;fill:#ffd2ff"
       d="M298.24754 475.90481C298.24754 475.90481 278.04449 474.38958 278.04449 474.38958C278.04449 474.38958 264.65997 476.15735 264.65997 476.15735C264.65997 476.15735 253.29575 479.94542 253.29575 479.94542C253.29575 479.94542 250.2653 483.48095 250.2653 483.48095C250.2653 483.48095 249.76022 491.0571 249.76022 491.0571C249.76022 491.0571 255.31606 495.85532 255.31606 495.85532C255.31606 495.85532 277.03434 498.88578 277.03434 498.88578C277.03434 498.88578 298.24754 496.3604 298.24754 496.3604C298.24754 496.3604 306.07622 493.83502 306.07622 493.83502C306.07622 493.83502 311.37953 488.02664 311.37953 488.02664C311.37953 488.02664 312.13714 479.44034 312.13714 479.44034C312.13714 479.44034 298.24754 475.90481 298.24754 475.90481"
       id="path1059" />
    <path
       style="stroke-linejoin:miter;stroke-opacity:1;fill-opacity:1;stroke:none;stroke-linecap:butt;stroke-width:2.0;fill:#ed77ed"
       d="M252.2856 496.61293C252.2856 496.61293 255.31605 486.00633 255.31605 486.00633C255.31605 486.00633 253.29575 474.13704 253.29575 474.13704C253.29575 474.13704 240.92138 470.09642 240.92138 470.09642C240.92138 470.09642 218.44549 467.82358 218.44549 467.82358C218.44549 467.82358 202.53558 472.87434 202.53558 472.87434C202.53558 472.87434 183.34269 470.34896 183.34269 470.34896C183.34269 470.34896 167.43278 466.30835 167.43278 466.30835C167.43278 466.30835 145.46196 472.62181 145.46196 472.62181C145.46196 472.62181 100.51017 473.63196 100.51017 473.63196C100.51017 473.63196 80.307127 471.61165 80.307127 471.61165C80.307127 471.61165 41.92133 475.39973 41.92133 475.39973C41.92133 475.39973 16.16244 473.8845 16.16244 473.8845C16.16244 473.8845 4.2931479 480.19795 4.2931479 480.19795C4.2931479 480.19795 -3.0304572 488.78425 -3.0304572 488.78425C-3.0304572 488.78425 -1.7677672 495.60278 -1.7677672 495.60278C-1.7677672 495.60278 0.25253777 502.16877 0.25253777 502.16877C0.25253777 502.16877 6.5659919 504.44161 6.5659919 504.44161C6.5659919 504.44161 18.687821 500.65354 18.687821 500.65354C18.687821 500.65354 43.689097 494.84516 43.689097 494.84516C43.689097 494.84516 71.72083 498.3807 71.72083 498.3807C71.72083 498.3807 112.37947 498.88577 112.37947 498.88577C112.37947 498.88577 133.0876 494.84516 133.0876 494.84516C133.0876 494.84516 158.84649 496.86547 158.84649 496.86547C158.84649 496.86547 186.87822 498.3807 186.87822 498.3807C186.87822 498.3807 218.95056 494.08755 218.95056 494.08755C218.95056 494.08755 252.2856 496.61293 252.2856 496.61293"
       id="path1061" />
    <path
       style="stroke-linejoin:miter;stroke-opacity:1;stroke:#000000;stroke-linecap:butt;stroke-width:2.0;fill:none"
       d="M279.33256 458.28533C279.33256 458.28533 220.21325 345.84766 220.21325 345.84766C220.21325 345.84766 7.0710678 275.13698 7.0710678 275.13698C7.0710678 275.13698 3.5355339 53.913575 3.5355339 53.913575C3.5355339 53.913575 30.807961 35.685505 30.807961 35.685505C30.807961 35.685505 280.82408 36.271517 280.82408 36.271517C280.82408 36.271517 318.70313 53.408499 318.70313 53.408499C318.70313 53.408499 316.68282 276.14714 316.68282 276.14714C316.68282 276.14714 284.86302 343.32228 284.86302 343.32228C284.86302 343.32228 279.33256 458.28533 279.33256 458.28533"
       id="path1065">
      <desc
         id="desc1067">#ground
#static</desc>
    </path>
  </g>
</svg>
