<?xml version="1.0" encoding="UTF-8" standalone="no"?>
<!-- Created with Inkscape (http://www.inkscape.org/) -->

<svg
   xmlns:dc="http://purl.org/dc/elements/1.1/"
   xmlns:cc="http://creativecommons.org/ns#"
   xmlns:rdf="http://www.w3.org/1999/02/22-rdf-syntax-ns#"
   xmlns:svg="http://www.w3.org/2000/svg"
   xmlns="http://www.w3.org/2000/svg"
   xmlns:sodipodi="http://sodipodi.sourceforge.net/DTD/sodipodi-0.dtd"
   xmlns:inkscape="http://www.inkscape.org/namespaces/inkscape"
   width="320"
   height="560"
   viewBox="0 0 320 560.00001"
   id="svg2"
   version="1.1"
   inkscape:version="0.92.3 (2405546, 2018-03-11)"
   sodipodi:docname="chalice.svg">
  <sodipodi:namedview
     id="base"
     pagecolor="#ffffff"
     bordercolor="#666666"
     borderopacity="1.0"
     inkscape:pageopacity="0.0"
     inkscape:pageshadow="2"
     inkscape:zoom="1.4"
     inkscape:cx="125.78104"
     inkscape:cy="259.06717"
     inkscape:document-units="px"
     inkscape:current-layer="layer1"
     showgrid="false"
     inkscape:window-width="1920"
     inkscape:window-height="1017"
     inkscape:window-x="-8"
     inkscape:window-y="-8"
     inkscape:window-maximized="1"
     units="px" />
  <defs
     id="defs4" />
  <metadata
     id="metadata7">
    <rdf:RDF>
      <cc:Work
         rdf:about="">
        <dc:format>image/svg+xml</dc:format>
        <dc:type
           rdf:resource="http://purl.org/dc/dcmitype/StillImage" />
        <dc:title></dc:title>
      </cc:Work>
    </rdf:RDF>
  </metadata>
  <g
     id="layer1"
     inkscape:groupmode="layer"
     inkscape:label="Layer 1">
    <ellipse
       style="fill:#e30000;fill-opacity:1;fill-rule:evenodd;stroke:none;stroke-width:4.98087835;stroke-linecap:butt;stroke-linejoin:miter;stroke-opacity:1"
       id="path3355-7"
       cx="158.26016"
       cy="198.83434"
       rx="4.2152963"
       ry="4.2152958">
      <desc
         id="desc3371-5">#ball</desc>
    </ellipse>
    <path
       id="path5908"
       d="m 161.37708,487.26209 c 0,0 33.01969,-9.07023 33.01969,-9.07023 0,0 8.13268,3.28783 8.13268,3.28783 0,0 3.68918,6.29196 3.68918,6.29196 0,0 -4.15434,6.93054 -4.15434,6.93054 0,0 -8.17707,2.64924 -8.17707,2.64924 0,0 -32.51014,-10.08934 -32.51014,-10.08934"
       style="fill:#ff0000;fill-opacity:0.68627451;fill-rule:evenodd;stroke:none;stroke-width:1.41421354;stroke-linecap:butt;stroke-linejoin:miter;stroke-opacity:1"
       inkscape:connector-curvature="0">
      <desc
         id="desc5910">#flipper
side=right</desc>
    </path>
    <path
       inkscape:connector-curvature="0"
       id="path5908-0"
       d="m 159.0236,487.24423 c 0,0 -33.01969,-9.07023 -33.01969,-9.07023 0,0 -8.13268,3.28783 -8.13268,3.28783 0,0 -3.68918,6.29196 -3.68918,6.29196 0,0 4.15434,6.93054 4.15434,6.93054 0,0 8.17707,2.64924 8.17707,2.64924 0,0 32.51014,-10.08934 32.51014,-10.08934"
       style="fill:#ff0000;fill-opacity:0.68627451;fill-rule:evenodd;stroke:none;stroke-width:1.41421354;stroke-linecap:butt;stroke-linejoin:miter;stroke-opacity:1">
      <desc
         id="desc5910-6">#flipper
side=left</desc>
    </path>
    <path
       style="fill:#ff00ff;fill-opacity:1;stroke:none;stroke-width:1;stroke-miterlimit:4;stroke-dasharray:none;stroke-opacity:1"
       d="m 108.05584,516.21936 h 102.5 v 38.57143 h -102.5 z"
       id="rect6100"
       inkscape:connector-curvature="0">
      <desc
         id="desc6105">#goal</desc>
    </path>
    <circle
       r="9.4367275"
       style="fill:#699fff;fill-opacity:1;stroke:none;stroke-width:0.28284273;stroke-miterlimit:4;stroke-dasharray:none;stroke-opacity:1"
       id="path5309-8-0"
       cx="92.681503"
       cy="149.62553">
      <desc
         id="desc5311-6-4">#bumper</desc>
    </circle>
    <circle
       style="fill:#699fff;fill-opacity:1;stroke:none;stroke-width:0.28284273;stroke-miterlimit:4;stroke-dasharray:none;stroke-opacity:1"
       id="path5309-8-0-8"
       cx="253.04321"
       cy="257.45929"
       r="9.4367275">
      <desc
         id="desc5311-6-4-7">#bumper</desc>
    </circle>
    <circle
       r="9.4367275"
       style="fill:#699fff;fill-opacity:1;stroke:none;stroke-width:0.28284273;stroke-miterlimit:4;stroke-dasharray:none;stroke-opacity:1"
       id="path5309-8-0-1"
       cx="67.175148"
       cy="258.46945">
      <desc
         id="desc5311-6-4-72">#bumper</desc>
    </circle>
    <circle
       r="6.2858953"
       style="fill:#699fff;fill-opacity:1;stroke:none;stroke-width:0.28284273;stroke-miterlimit:4;stroke-dasharray:none;stroke-opacity:1"
       id="path5309-8-7"
       cx="158.09082"
       cy="225.49034">
      <desc
         id="desc5311-6-2">#bumper</desc>
    </circle>
    <circle
       r="6.2858953"
       style="fill:#699fff;fill-opacity:1;stroke:none;stroke-width:0.28284273;stroke-miterlimit:4;stroke-dasharray:none;stroke-opacity:1"
       id="path5309-8-7-2-1-6-5"
       cx="160.43509"
       cy="88.696098">
      <desc
         id="desc5311-6-2-6-0-1-9">#bumper</desc>
    </circle>
    <ellipse
       style="fill:none;fill-opacity:1;stroke:#e59896;stroke-width:3;stroke-miterlimit:4;stroke-dasharray:none;stroke-opacity:1"
       id="path6422-9"
       cx="24.629799"
       cy="309.25238"
       rx="33.214283"
       ry="33.214287">
      <desc
         id="desc6424-3">#collect
group=BigThree</desc>
    </ellipse>
    <circle
       style="fill:none;fill-opacity:1;stroke:#e59896;stroke-width:3;stroke-miterlimit:4;stroke-dasharray:none;stroke-opacity:1"
       id="path6422-9-8"
       cx="295.63345"
       cy="309.95615"
       r="33.214287">
      <desc
         id="desc6424-3-5">#collect
group=BigThree</desc>
    </circle>
    <circle
       style="fill:none;fill-opacity:1;stroke:#e59896;stroke-width:1;stroke-miterlimit:4;stroke-dasharray:none;stroke-opacity:1"
       id="path6422-9-6"
       cx="157.37746"
       cy="257.30566"
       r="11.071428">
      <desc
         id="desc6424-3-1">#collect
group=Gimme
singlePoints=10
comboPoints=50</desc>
    </circle>
    <circle
       style="fill:none;fill-opacity:1;stroke:#e59896;stroke-width:3;stroke-miterlimit:4;stroke-dasharray:none;stroke-opacity:1"
       id="path6422-9-1"
       cx="159.44597"
       cy="146.59677"
       r="33.214287">
      <desc
         id="desc6424-3-59">#collect
group=BigThree
singlePoints=20
comboPoints=250</desc>
    </circle>
    <path
       style="fill:none;stroke:#000000;stroke-width:2;stroke-linecap:butt;stroke-linejoin:miter;stroke-opacity:1;stroke-miterlimit:4;stroke-dasharray:none"
       d="m 199.50513,411.0025 43.43656,-28.28427 28.28427,-40.4061 v -69.70052 l -38.3858,-30.30458 -37.37564,75.76144 z"
       id="path3817"
       inkscape:connector-curvature="0" />
    <path
       style="fill:none;stroke:#000000;stroke-width:3;stroke-linecap:butt;stroke-linejoin:miter;stroke-opacity:1;stroke-miterlimit:4;stroke-dasharray:none"
       d="m 99.682349,16.014996 -95.96449,62.62946 -1.01016,312.137134 50.50763,60.60916 62.655901,30.07108 8.64223,15.87174 -29.881871,36.88968 65.568751,-1.00122 65.56875,1.01908 -29.88187,-36.88968 8.64223,-15.87174 62.6559,-30.07108 50.50763,-60.60916 -1.01016,-312.137137 -95.96449,-62.629458 -60.51799,33.326102 z"
       id="path3815-2"
       inkscape:connector-curvature="0"
       sodipodi:nodetypes="ccccccccccccccccc" />
    <path
       style="fill:none;stroke:#000000;stroke-width:2;stroke-linecap:butt;stroke-linejoin:miter;stroke-opacity:1;stroke-miterlimit:4;stroke-dasharray:none"
       d="m 120.89555,410.98464 -43.436561,-28.28427 -28.28427,-40.4061 v -69.70052 l 38.3858,-30.30458 37.375641,75.76144 z"
       id="path3817-7"
       inkscape:connector-curvature="0" />
    <circle
       r="9.4367275"
       style="fill:#699fff;fill-opacity:1;stroke:none;stroke-width:0.28284273;stroke-miterlimit:4;stroke-dasharray:none;stroke-opacity:1"
       id="path5309-8-0-13"
       cx="228.29448"
       cy="147.85776">
      <desc
         id="desc5311-6-4-5">#bumper</desc>
    </circle>
    <path
       id="path5908-6"
       d="m 283.249,220.70693 c 0,0 33.01969,-9.07023 33.01969,-9.07023 0,0 8.13268,3.28783 8.13268,3.28783 0,0 3.68918,6.29196 3.68918,6.29196 0,0 -4.15434,6.93054 -4.15434,6.93054 0,0 -8.17707,2.64924 -8.17707,2.64924 0,0 -32.51014,-10.08934 -32.51014,-10.08934"
       style="fill:#ff0000;fill-opacity:0.68627451;fill-rule:evenodd;stroke:none;stroke-width:1.41421354;stroke-linecap:butt;stroke-linejoin:miter;stroke-opacity:1"
       inkscape:connector-curvature="0">
      <desc
         id="desc5910-0">#flipper
side=right</desc>
    </path>
    <path
       inkscape:connector-curvature="0"
       id="path5908-0-9"
       d="m 37.15167,225.27048 c 0,0 -33.0196903,-9.07023 -33.0196903,-9.07023 0,0 -8.13268,3.28783 -8.13268,3.28783 0,0 -3.68918,6.29196 -3.68918,6.29196 0,0 4.15434,6.93054 4.15434,6.93054 0,0 8.17707,2.64924 8.17707,2.64924 0,0 32.5101403,-10.08934 32.5101403,-10.08934"
       style="fill:#ff0000;fill-opacity:0.68627451;fill-rule:evenodd;stroke:none;stroke-width:1.41421354;stroke-linecap:butt;stroke-linejoin:miter;stroke-opacity:1">
      <desc
         id="desc5910-6-9">#flipper
side=left</desc>
    </path>
    <circle
       style="fill:none;fill-opacity:1;stroke:#e59896;stroke-width:1;stroke-miterlimit:4;stroke-dasharray:none;stroke-opacity:1"
       id="path6422-9-6-9"
       cx="158.57143"
       cy="372.14285"
       r="11.071428">
      <desc
         id="desc6424-3-1-2">#collect
group=Gimme</desc>
    </circle>
  </g>
</svg>
