<?xml version="1.0" encoding="UTF-8" standalone="no"?>
<!-- Created with Inkscape (http://www.inkscape.org/) -->

<svg
   xmlns:dc="http://purl.org/dc/elements/1.1/"
   xmlns:cc="http://creativecommons.org/ns#"
   xmlns:rdf="http://www.w3.org/1999/02/22-rdf-syntax-ns#"
   xmlns:svg="http://www.w3.org/2000/svg"
   xmlns="http://www.w3.org/2000/svg"
   xmlns:sodipodi="http://sodipodi.sourceforge.net/DTD/sodipodi-0.dtd"
   xmlns:inkscape="http://www.inkscape.org/namespaces/inkscape"
   width="320"
   height="560"
   viewBox="0 0 320 560.00001"
   id="svg2"
   version="1.1"
   inkscape:version="0.91 r13725"
   sodipodi:docname="distributor.svg">
  <sodipodi:namedview
     id="base"
     pagecolor="#ffffff"
     bordercolor="#666666"
     borderopacity="1.0"
     inkscape:pageopacity="0.0"
     inkscape:pageshadow="2"
     inkscape:zoom="1.979899"
     inkscape:cx="223.01012"
     inkscape:cy="276.68106"
     inkscape:document-units="px"
     inkscape:current-layer="layer1"
     showgrid="false"
     inkscape:window-width="1920"
     inkscape:window-height="1017"
     inkscape:window-x="0"
     inkscape:window-y="0"
     inkscape:window-maximized="1"
     units="px"
     showguides="true"
     inkscape:guide-bbox="true" />
  <defs
     id="defs4" />
  <metadata
     id="metadata7">
    <rdf:RDF>
      <cc:Work
         rdf:about="">
        <dc:format>image/svg+xml</dc:format>
        <dc:type
           rdf:resource="http://purl.org/dc/dcmitype/StillImage" />
        <dc:title></dc:title>
      </cc:Work>
    </rdf:RDF>
  </metadata>
  <g
     id="layer1"
     inkscape:groupmode="layer"
     inkscape:label="Layer 1">
    <path
       id="path3336"
       d="m 50.806584,317.34182 -0.660032,59.57139 6.277762,36.18779 12.608236,32.96856 12.505183,13.98502 12.172516,15.01739 19.809751,4.29301 -3.32681,70.57873 86.53095,0.55348 -2.0216,-72.06449 45.73215,-10.77319 13.23086,-5.78352 11.35374,-8.73294 6.46658,-10.83825 4.80467,-17.42679 5.48426,-22.09618 6.79587,-39.32907 7.85919,-77.29802 12.15219,-114.73625 1.0268,-4.80804 -6.43619,-4.24511 -4.10902,2.05613 -5.77181,-2.87728 -5.92358,-0.18924 -4.8228,5.03007 2.65403,7.31462 -44.78588,177.14592 -70.93835,1.84957 19.57848,-31.37457 37.23397,-29.52631 15.4887,-30.32174 11.8954,-26.70195 8.97528,-29.41606 -10.74619,-29.15067 -24.72436,-15.22109 -34.8941,-3.78385 -26.42728,-3.22409 -17.00645,0.41946 -17.28246,-16.25514 0.24961,16.67524 -39.208061,0.96705 -14.924559,4.55878 -11.386799,7.67285 -5.811945,9.57874 0.634086,11.01348 12.23209,6.10148 20.675389,4.93603 26.521529,6.04315 26.99993,-1.4183 -39.19252,22.59481 -32.265743,28.83765 -21.476231,39.14074 -3.746578,22.97201"
       style="fill:none;fill-rule:evenodd;stroke:#000000;stroke-width:2.82842708;stroke-linecap:butt;stroke-linejoin:miter;stroke-miterlimit:4;stroke-dasharray:none;stroke-opacity:1"
       inkscape:connector-curvature="0"
       sodipodi:nodetypes="ccccccccccccccccccccccccccccccccccccccccccccccccccccc">
      <desc
         id="desc3363">#ground
#static</desc>
    </path>
    <ellipse
       style="fill:#e30000;fill-opacity:1;fill-rule:evenodd;stroke:none;stroke-width:4.98087835;stroke-linecap:butt;stroke-linejoin:miter;stroke-opacity:1"
       id="path3355-7"
       cx="268.87186"
       cy="357.98157"
       rx="4.2152963"
       ry="4.2152958">
      <desc
         id="desc3371-5">#ball</desc>
    </ellipse>
    <path
       id="path5908"
       d="m 157.82124,484.75701 c 0,0 33.01969,-9.07023 33.01969,-9.07023 0,0 8.13268,3.28783 8.13268,3.28783 0,0 3.68918,6.29196 3.68918,6.29196 0,0 -4.15434,6.93054 -4.15434,6.93054 0,0 -8.17707,2.64924 -8.17707,2.64924 0,0 -32.51014,-10.08934 -32.51014,-10.08934"
       style="fill:#ff0000;fill-opacity:0.68627451;fill-rule:evenodd;stroke:none;stroke-width:1.41421354;stroke-linecap:butt;stroke-linejoin:miter;stroke-opacity:1"
       inkscape:connector-curvature="0">
      <desc
         id="desc5910">#flipper
side=right</desc>
    </path>
    <path
       inkscape:connector-curvature="0"
       id="path5908-0"
       d="m 151.46776,484.73915 c 0,0 -33.01969,-9.07023 -33.01969,-9.07023 0,0 -8.13268,3.28783 -8.13268,3.28783 0,0 -3.68918,6.29196 -3.68918,6.29196 0,0 4.15434,6.93054 4.15434,6.93054 0,0 8.17707,2.64924 8.17707,2.64924 0,0 32.51014,-10.08934 32.51014,-10.08934"
       style="fill:#ff0000;fill-opacity:0.68627451;fill-rule:evenodd;stroke:none;stroke-width:1.41421354;stroke-linecap:butt;stroke-linejoin:miter;stroke-opacity:1">
      <desc
         id="desc5910-6">#flipper
side=left</desc>
    </path>
    <path
       style="fill:#ff00ff;fill-opacity:1;stroke:none;stroke-width:1;stroke-miterlimit:4;stroke-dasharray:none;stroke-opacity:1"
       d="m 102.5,515.71428 102.5,0 0,38.57143 -102.5,0 z"
       id="rect6100"
       inkscape:connector-curvature="0">
      <desc
         id="desc6105">#goal</desc>
    </path>
    <circle
       r="9.4367275"
       style="fill:#699fff;fill-opacity:1;stroke:none;stroke-width:0.28284273;stroke-miterlimit:4;stroke-dasharray:none;stroke-opacity:1"
       id="path5309-8-0"
       cx="260.79425"
       cy="212.79341">
      <desc
         id="desc5311-6-4">#bumper</desc>
    </circle>
    <circle
       style="fill:#699fff;fill-opacity:1;stroke:none;stroke-width:0.28284273;stroke-miterlimit:4;stroke-dasharray:none;stroke-opacity:1"
       id="path5309-8-0-8"
       cx="245.46812"
       cy="249.27582"
       r="9.4367275">
      <desc
         id="desc5311-6-4-7">#bumper</desc>
    </circle>
    <circle
       r="9.4367275"
       style="fill:#699fff;fill-opacity:1;stroke:none;stroke-width:0.28284273;stroke-miterlimit:4;stroke-dasharray:none;stroke-opacity:1"
       id="path5309-8-0-1"
       cx="225.35863"
       cy="286.47995">
      <desc
         id="desc5311-6-4-72">#bumper</desc>
    </circle>
    <path
       style="fill:none;fill-rule:evenodd;stroke:#000000;stroke-width:1px;stroke-linecap:butt;stroke-linejoin:miter;stroke-opacity:1"
       d="m 163.92857,448.92857 -37.14286,-27.85714 -8.21428,-18.92857 -7.14286,-24.64286 -2.5,-25.71428 1.42857,-30.71429 L 124.64286,292.5 152.5,272.14286 l 35,-9.28571"
       id="path6549"
       inkscape:connector-curvature="0"
       sodipodi:nodetypes="ccccccccc" />
    <path
       style="fill:none;fill-rule:evenodd;stroke:#000000;stroke-width:1px;stroke-linecap:butt;stroke-linejoin:miter;stroke-opacity:1"
       d="m 120.35714,455.71429 -28.928569,-28.92857 -9.642857,-25 -3.928572,-35.71429 1.785715,-37.5 12.5,-36.42857 20.714283,-26.78572 33.57143,-26.42857 25,-9.64285"
       id="path6551"
       inkscape:connector-curvature="0"
       sodipodi:nodetypes="ccccccccc" />
    <circle
       style="fill:none;fill-opacity:1;stroke:#e59896;stroke-width:1;stroke-miterlimit:4;stroke-dasharray:none;stroke-opacity:1"
       id="path6553"
       cx="97.732262"
       cy="173.36412"
       r="8.8388348">
      <desc
         id="desc6572">#collect
group=Eyes
singlePoints=100
comboPoints=350</desc>
    </circle>
    <circle
       style="fill:none;fill-opacity:1;stroke:#e59896;stroke-width:1;stroke-miterlimit:4;stroke-dasharray:none;stroke-opacity:1"
       id="path6553-8"
       cx="122.22846"
       cy="181.69788"
       r="8.8388348">
      <desc
         id="desc6570">#collect
group=Eyes</desc>
    </circle>
  </g>
</svg>
